<svg xmlns="http://www.w3.org/2000/svg" version="1.1" xmlns:xlink="http://www.w3.org/1999/xlink" xmlns:svgjs="http://svgjs.dev/svgjs" width="1000" height="1000" viewBox="0 0 1000 1000"><g transform="matrix(1,0,0,1,-0.14221556886212738,-0.14221556886229791)"><svg viewBox="0 0 334 334" data-background-color="#ffffff" preserveAspectRatio="xMidYMid meet" height="1000" width="1000" xmlns="http://www.w3.org/2000/svg" xmlns:xlink="http://www.w3.org/1999/xlink"><g id="tight-bounds" transform="matrix(1,0,0,1,0.04749999999998522,0.04750000000001364)"><svg viewBox="0 0 333.90454557049503 333.90454557049503" height="333.90454557049503" width="333.90454557049503"><g><svg></svg></g><g><svg viewBox="0 0 333.90454557049503 333.90454557049503" height="333.90454557049503" width="333.90454557049503"><g><path d="M0 166.952c0-92.205 74.747-166.952 166.952-166.952 92.205 0 166.952 74.747 166.953 166.952 0 92.205-74.747 166.952-166.953 166.953-92.205 0-166.952-74.747-166.952-166.953zM166.952 323.227c86.308 0 156.274-69.966 156.275-156.275 0-86.308-69.966-156.274-156.275-156.274-86.308 0-156.274 69.966-156.274 156.274 0 86.308 69.966 156.274 156.274 156.275z" data-fill-palette-color="tertiary" fill="#ee3e38" stroke="transparent"></path><ellipse rx="160.27418187383762" ry="160.27418187383762" cx="166.95227278524752" cy="166.95227278524752" fill="#ee3e38" stroke="transparent" stroke-width="0" fill-opacity="1" data-fill-palette-color="tertiary"></ellipse></g><g transform="matrix(1,0,0,1,79.66317699060114,71.17305217166896)"><svg viewBox="0 0 174.57819158929274 191.55844122715712" height="191.55844122715712" width="174.57819158929274"><g><svg viewBox="0 0 174.57819158929274 191.55844122715712" height="191.55844122715712" width="174.57819158929274"><g><svg viewBox="0 0 174.57819158929274 191.55844122715712" height="191.55844122715712" width="174.57819158929274"><g><svg viewBox="0 0 174.57819158929274 191.55844122715712" height="191.55844122715712" width="174.57819158929274"><g id="textblocktransform"><svg viewBox="0 0 174.57819158929274 191.55844122715712" height="191.55844122715712" width="174.57819158929274" id="textblock"><g><svg viewBox="0 0 174.57819158929274 191.55844122715712" height="191.55844122715712" width="174.57819158929274"><g transform="matrix(1,0,0,1,0,0)"><svg width="174.57819158929274" viewBox="1.7999999523162842 -35.400001525878906 32.900001525878906 36.10000228881836" height="191.55844122715712" data-palette-color="#ffffff"><path d="M1.8-34.4L1.8-35.4Q3.05-35.35 5-35.3 6.95-35.25 8.9-35.25L8.9-35.25Q11.35-35.25 13.55-35.3 15.75-35.35 16.65-35.35L16.65-35.35Q23.35-35.35 26.63-33 29.9-30.65 29.9-26.65L29.9-26.65Q29.9-25 29.25-23.28 28.6-21.55 27-20.1 25.4-18.65 22.63-17.73 19.85-16.8 15.55-16.8L15.55-16.8 10.75-16.8 10.75-17.8 15.05-17.8Q18.2-17.8 19.88-18.93 21.55-20.05 22.13-21.93 22.7-23.8 22.7-26.1L22.7-26.1Q22.7-30.05 21.15-32.23 19.6-34.4 15.8-34.4L15.8-34.4Q13.75-34.4 13.13-33.55 12.5-32.7 12.5-30.1L12.5-30.1 12.5-5.3Q12.5-3.5 12.8-2.6 13.1-1.7 13.93-1.4 14.75-1.1 16.35-1L16.35-1 16.35 0Q15.1-0.1 13.15-0.13 11.2-0.15 9.2-0.15L9.2-0.15Q6.95-0.15 5-0.13 3.05-0.1 1.8 0L1.8 0 1.8-1Q3.45-1.1 4.28-1.4 5.1-1.7 5.38-2.6 5.65-3.5 5.65-5.3L5.65-5.3 5.65-30.1Q5.65-31.95 5.38-32.83 5.1-33.7 4.28-34.02 3.45-34.35 1.8-34.4L1.8-34.4ZM10.85-16.8L10.75-17.65Q13.1-17.55 14.68-17.43 16.25-17.3 17.38-17.2 18.5-17.1 19.4-16.95L19.4-16.95Q23.55-16.55 25.53-15.03 27.5-13.5 28.15-10.4L28.15-10.4 29.3-5.25Q29.75-3.2 30.28-2.33 30.8-1.45 31.8-1.5L31.8-1.5Q32.5-1.5 33-1.88 33.5-2.25 34-2.9L34-2.9 34.7-2.3Q33.45-0.75 32.05-0.03 30.65 0.7 28.5 0.7L28.5 0.7Q26.1 0.7 24.45-0.43 22.8-1.55 22.2-4.7L22.2-4.7 21.25-9.7Q20.85-11.8 20.33-13.4 19.8-15 18.9-15.9 18-16.8 16.25-16.8L16.25-16.8 10.85-16.8Z" opacity="1" transform="matrix(1,0,0,1,0,0)" fill="#ffffff" class="undefined-text-0" data-fill-palette-color="quaternary" id="text-0"></path></svg></g></svg></g></svg></g></svg></g><g></g></svg></g></svg></g></svg></g></svg></g><defs></defs></svg><rect width="333.90454557049503" height="333.90454557049503" fill="none" stroke="none" visibility="hidden"></rect></g></svg></g></svg>